HIERARCHY
ROOT Lex4_Hips
{
  OFFSET -0.563458 94.7827 2.4889
  CHANNELS 6 Xposition Yposition Zposition Zrotation Xrotation Yrotation
  JOINT Lex4_LeftUpLeg
  {
    OFFSET 11.2507 0 0
    CHANNELS 6 Xposition Yposition Zposition Zrotation Xrotation Yrotation
    JOINT Lex4_LeftLeg
    {
      OFFSET 0 -48.2125 0
      CHANNELS 6 Xposition Yposition Zposition Zrotation Xrotation Yrotation
      JOINT Lex4_LeftFoot
      {
        OFFSET 0 -41.8358 0
        CHANNELS 6 Xposition Yposition Zposition Zrotation Xrotation Yrotation
        JOINT Lex4_LeftToeBase
        {
          OFFSET 0 0 13.7184
          CHANNELS 6 Xposition Yposition Zposition Zrotation Xrotation Yrotation
          JOINT Lex4_LeftToeEnd
          {
            OFFSET 0 0 7.5
            CHANNELS 6 Xposition Yposition Zposition Zrotation Xrotation Yrotation
            End Site
            {
              OFFSET 0 0 0
            }
          }
        }
      }
    }
  }
  JOINT Lex4_RightUpLeg
  {
    OFFSET -11.2507 0 0
    CHANNELS 6 Xposition Yposition Zposition Zrotation Xrotation Yrotation
    JOINT Lex4_RightLeg
    {
      OFFSET 0 -48.2125 0
      CHANNELS 6 Xposition Yposition Zposition Zrotation Xrotation Yrotation
      JOINT Lex4_RightFoot
      {
        OFFSET 0 -41.8358 0
        CHANNELS 6 Xposition Yposition Zposition Zrotation Xrotation Yrotation
        JOINT Lex4_RightToeBase
        {
          OFFSET 0 0 13.7184
          CHANNELS 6 Xposition Yposition Zposition Zrotation Xrotation Yrotation
          JOINT Lex4_RightToeEnd
          {
            OFFSET 0 0 7.5
            CHANNELS 6 Xposition Yposition Zposition Zrotation Xrotation Yrotation
            End Site
            {
              OFFSET 0 0 0
            }
          }
        }
      }
    }
  }
  JOINT Lex4_Spine
  {
    OFFSET 0 14.1428 0
    CHANNELS 6 Xposition Yposition Zposition Zrotation Xrotation Yrotation
    JOINT Lex4_Head
    {
      OFFSET 0 48.2444 0
      CHANNELS 6 Xposition Yposition Zposition Zrotation Xrotation Yrotation
      End Site
      {
        OFFSET 0 11.5 0
      }
    }
    JOINT Lex4_LabelingCluster_1
    {
      OFFSET 6.91668 29.7232 -14.2315
      CHANNELS 6 Xposition Yposition Zposition Zrotation Xrotation Yrotation
      End Site
      {
        OFFSET 0 0 0
      }
    }
    JOINT Lex4_LeftShoulder
    {
      OFFSET 0 33.7901 0
      CHANNELS 6 Xposition Yposition Zposition Zrotation Xrotation Yrotation
      JOINT Lex4_LeftArm
      {
        OFFSET 0 19.8458 0
        CHANNELS 6 Xposition Yposition Zposition Zrotation Xrotation Yrotation
        JOINT Lex4_LeftForeArm
        {
          OFFSET 0 31.3007 0
          CHANNELS 6 Xposition Yposition Zposition Zrotation Xrotation Yrotation
          JOINT Lex4_LeftHand
          {
            OFFSET 0 25.4109 0
            CHANNELS 6 Xposition Yposition Zposition Zrotation Xrotation Yrotation
            JOINT Lex4_LeftHandEnd
            {
              OFFSET 0 10 0
              CHANNELS 6 Xposition Yposition Zposition Zrotation Xrotation Yrotation
              End Site
              {
                OFFSET 0 0 0
              }
            }
            JOINT Lex4_LeftHandThumb1
            {
              OFFSET 0 0 0
              CHANNELS 6 Xposition Yposition Zposition Zrotation Xrotation Yrotation
              JOINT Lex4_LeftHandThumb2
              {
                OFFSET 0 0 10
                CHANNELS 6 Xposition Yposition Zposition Zrotation Xrotation Yrotation
                End Site
                {
                  OFFSET 0 0 0
                }
              }
            }
          }
        }
      }
    }
    JOINT Lex4_RightShoulder
    {
      OFFSET 0 33.7901 0
      CHANNELS 6 Xposition Yposition Zposition Zrotation Xrotation Yrotation
      JOINT Lex4_RightArm
      {
        OFFSET 0 19.8458 0
        CHANNELS 6 Xposition Yposition Zposition Zrotation Xrotation Yrotation
        JOINT Lex4_RightForeArm
        {
          OFFSET 0 31.3007 0
          CHANNELS 6 Xposition Yposition Zposition Zrotation Xrotation Yrotation
          JOINT Lex4_RightHand
          {
            OFFSET 0 25.4109 0
            CHANNELS 6 Xposition Yposition Zposition Zrotation Xrotation Yrotation
            JOINT Lex4_RightHandEnd
            {
              OFFSET 0 10 0
              CHANNELS 6 Xposition Yposition Zposition Zrotation Xrotation Yrotation
              End Site
              {
                OFFSET 0 0 0
              }
            }
            JOINT Lex4_RightHandThumb1
            {
              OFFSET 0 0 0
              CHANNELS 6 Xposition Yposition Zposition Zrotation Xrotation Yrotation
              JOINT Lex4_RightHandThumb2
              {
                OFFSET 0 0 10
                CHANNELS 6 Xposition Yposition Zposition Zrotation Xrotation Yrotation
                End Site
                {
                  OFFSET 0 0 0
                }
              }
            }
          }
        }
      }
    }
  }
}
MOTION
Frames:	4
Frame Time:	0.0416667
-4.14676 74.8211 43.0404 6.71874 -5.23791 126.129 11.2507 -1.42109e-014 -3.55271e-015 55.842 -28.5065 52.0154 3.55271e-015 -48.2125 -1.42109e-014 -1.43975e-014 68.6134 4.36099e-015 -3.55271e-015 -41.8358 -1.77636e-015 -4.08181 4.07615 8.06894 0 -2.22045e-016 13.7184 1.90099e-015 -15.4715 6.05885e-016 7.10543e-015 5.55112e-016 7.5 4.86401e-015 -5.96354e-016 9.93923e-017 -11.2507 0 3.55271e-015 -30.6923 8.61626 5.03967 -1.42109e-014 -48.2125 0 -3.18055e-015 4.66033 -0 0 -41.8358 7.10543e-015 22.4647 11.407 -1.77301 -1.42109e-014 0 13.7184 -8.19312e-015 -22.9767 3.45463e-015 0 0 7.5 -0 -1.59028e-015 -0 0 14.1428 -3.55271e-015 3.52846 30.8541 -22.1413 0 48.2444 7.10543e-015 -13.1657 -27.7868 49.0728 7.00697 31.1693 -14.8009 84.682 -10.3191 -179.231 0 33.7901 0 -93.601 -3.5746 7.84364 0 19.8458 0 -91.3992 47.9305 82.9374 -3.55271e-015 31.3007 0 1.438e-005 49.7139 -43.6286 7.10543e-015 25.4109 0 -24.8573 -10.7273 -4.04641e-015 7.10543e-015 10 0 3.18055e-015 3.97569e-015 1.98785e-015 0 0 0 15.0933 -21.7379 36.0619 -1.77636e-015 7.10543e-015 10 0 0 -1.59028e-015 0 33.7901 0 74.6271 -17.6838 -18.3508 -1.42109e-014 19.8458 7.10543e-015 35.4538 40.1981 -46.8313 -7.10543e-015 31.3007 0 -180 77.5944 165.816 -3.55271e-015 25.4109 0 -51.9605 0.602332 4.7711e-015 -1.42109e-014 10 -3.55271e-015 -2.38542e-015 6.36111e-015 -1.59028e-015 0 0 0 -13.7831 -20.2443 -35.3345 -2.84217e-014 -3.55271e-015 10 -7.95139e-016 -6.36111e-015 6.36111e-015 
-4.22403 74.7716 42.9696 6.46333 -5.2504 126.156 11.2507 0 0 55.7868 -28.7475 52.2001 3.55271e-015 -48.2125 0 -1.95397e-014 68.7686 2.1957e-015 0 -41.8358 -4.44089e-015 -4.10638 4.02619 8.10212 -3.55271e-015 0 13.7184 -1.86718e-015 -15.4835 3.91915e-015 3.55271e-015 8.88178e-016 7.5 2.35863e-015 -1.98785e-016 4.96962e-017 -11.2507 0 3.55271e-015 -30.8884 8.42849 4.98883 0 -48.2125 0 3.44216e-015 4.70203 -3.1913e-015 0 -41.8358 -7.10543e-015 22.6033 11.4164 -1.9651 0 0 13.7184 5.01298e-015 -22.9705 -3.45447e-015 -1.42109e-014 -3.55271e-015 7.5 1.59028e-015 1.59028e-015 -0 -7.10543e-015 14.1428 0 3.4195 30.8394 -21.9325 0 48.2444 0 -13.3526 -27.8614 48.8084 7.00697 31.1693 -14.8009 84.682 -10.3191 -179.231 0 33.7901 -7.10543e-015 -93.6844 -3.62095 7.8768 0 19.8458 -1.42109e-014 -91.3765 47.8641 82.3454 1.77636e-015 31.3007 -7.10543e-015 2.25987e-006 49.8246 -43.4421 0 25.4109 0 -25.2878 -10.5161 2.62835e-015 0 10 0 -3.18055e-015 0 1.98785e-016 0 0 0 15.0933 -21.7379 36.0619 1.77636e-015 -3.55271e-015 10 3.18055e-015 3.18055e-015 1.59028e-015 0 33.7901 -7.10543e-015 74.8027 -17.8225 -18.535 0 19.8458 7.10543e-015 35.2776 40.3457 -46.5653 7.10543e-015 31.3007 0 180 77.5258 166.115 7.10543e-015 25.4109 0 -52.0123 0.65705 9.54229e-015 1.42109e-014 10 0 -1.59028e-015 0 3.97569e-015 0 0 0 -13.7831 -20.2443 -35.3345 1.42109e-014 1.77636e-015 10 7.95139e-016 6.36111e-015 -0 
-4.27594 74.7278 42.9069 6.28831 -5.36177 126.097 11.2507 0 -3.55271e-015 55.9429 -28.8427 52.5182 3.55271e-015 -48.2125 0 -3.80139e-014 68.9334 -4.42416e-015 -3.55271e-015 -41.8358 -2.66454e-015 -4.13377 3.94543 8.01174 0 4.44089e-016 13.7184 1.63208e-015 -15.5836 3.39867e-015 -3.55271e-015 4.44089e-016 7.5 -8.96861e-017 0 -6.21202e-018 -11.2507 0 -3.55271e-015 -30.9444 8.28602 4.8338 0 -48.2125 7.10543e-015 -9.79526e-015 4.55869 3.19065e-015 0 -41.8358 0 22.5817 11.553 -2.078 -1.42109e-014 0 13.7184 1.00278e-014 -22.956 -6.90821e-015 0 -3.55271e-015 7.5 -4.77083e-015 -1.59028e-015 1.90833e-014 0 14.1428 0 3.41041 30.7593 -22.027 0 48.2444 -7.10543e-015 -13.5711 -27.8891 48.9063 7.00697 31.1693 -14.8009 84.682 -10.3191 -179.231 7.10543e-015 33.7901 7.10543e-015 -93.6317 -3.70608 7.99931 1.42109e-014 19.8458 1.42109e-014 -91.3442 47.8279 81.9542 -1.77636e-015 31.3007 0 9.59491e-006 49.923 -43.2563 7.10543e-015 25.4109 0 -25.049 -10.7794 1.61884e-015 -7.10543e-015 10 0 3.18055e-015 -2.38542e-015 -7.7526e-015 0 0 0 15.0933 -21.7379 36.0619 0 -3.55271e-015 10 1.59028e-015 -9.54166e-015 2.38542e-015 7.10543e-015 33.7901 7.10543e-015 75.0011 -17.884 -18.5322 1.42109e-014 19.8458 7.10543e-015 35.2309 40.5381 -46.2984 7.10543e-015 31.3007 0 180 77.6893 165.366 7.10543e-015 25.4109 7.10543e-015 -51.7783 0.533074 -5.56621e-015 1.42109e-014 10 1.06581e-014 5.56597e-015 3.18055e-015 -0 0 0 0 -13.7831 -20.2443 -35.3345 -1.42109e-014 0 10 0 6.36111e-015 -0 
-4.30305 74.638 42.8631 6.30503 -5.60382 125.914 11.2507 1.42109e-014 0 56.4242 -28.7885 52.8793 3.55271e-015 -48.2125 7.10543e-015 -1.15729e-014 69.2441 8.97479e-015 0 -41.8358 -4.44089e-015 -4.19928 3.74875 7.88051 0 -4.44089e-016 13.7184 3.72206e-015 -15.5667 3.50802e-015 0 1.11022e-015 7.5 7.84268e-017 0 4.03781e-017 -11.2507 1.42109e-014 0 -30.8171 8.12 4.86228 1.42109e-014 -48.2125 0 2.47027e-016 4.44113 -3.19013e-015 0 -41.8358 0 22.744 11.6385 -2.08632 1.42109e-014 -7.10543e-015 13.7184 3.18055e-015 -22.9416 -0 0 7.10543e-015 7.5 -0 -1.59028e-015 -0 -7.10543e-015 14.1428 3.55271e-015 3.58743 30.651 -22.1389 0 48.2444 1.42109e-014 -13.8581 -27.4896 49.1481 7.00697 31.1693 -14.8009 84.682 -10.3191 -179.231 -7.10543e-015 33.7901 7.10543e-015 -93.6514 -3.79287 7.98664 0 19.8458 0 -91.3391 47.9656 82.1852 -1.77636e-015 31.3007 -7.10543e-015 -2.54523e-006 50.1193 -43.1153 0 25.4109 1.42109e-014 -25.1549 -10.731 2.6302e-014 -7.10543e-015 10 -1.42109e-014 9.93129e-032 -2.38542e-015 2.38542e-015 0 0 0 15.0933 -21.7379 36.0619 0 0 10 6.62086e-031 -1.59028e-014 2.38542e-015 -7.10543e-015 33.7901 7.10543e-015 74.9679 -17.8198 -18.6768 0 19.8458 7.10543e-015 34.9284 40.8631 -45.8673 -7.10543e-015 31.3007 -2.84217e-014 180 77.9282 165.899 -7.10543e-015 25.4109 7.10543e-015 -51.9786 0.44094 -1.98791e-014 1.42109e-014 10 -7.10543e-015 -2.38542e-015 6.36111e-015 -1.59028e-015 0 0 0 -13.7831 -20.2443 -35.3345 0 -1.77636e-015 10 -2.38542e-015 0 -3.18055e-015 
